<svg xmlns="http://www.w3.org/2000/svg" id="my-svg" width="100%" aria-roledescription="flowchart-v2" class="flowchart" style="max-width:706.66px;background-color:#0f0e0c" viewBox="0 0 706.7 1471"><style><![CDATA[@keyframes vflow{to{stroke-dashoffset:-18}}@keyframes edge-animation-frame{0%{stroke-dashoffset:0}}@keyframes dash{to{stroke-dashoffset:0}}.flowchart-link{stroke:#f0c14b!important;stroke-width:2.6px!important;stroke-dasharray:11 7!important;animation:vflow .8s linear infinite}#my-svg{font-family:"trebuchet ms",verdana,arial,sans-serif;font-size:13px;fill:#ccc}#my-svg .edge-thickness-normal{stroke-width:1px}#my-svg .edge-thickness-thick{stroke-width:3.5px}#my-svg .edge-pattern-solid{stroke-dasharray:0}#my-svg .edge-thickness-invisible{stroke-width:0;fill:none}#my-svg .edge-pattern-dotted{stroke-dasharray:2}#my-svg .marker{fill:#c9a84c;stroke:#c9a84c}#my-svg .marker.cross{stroke:#c9a84c}#my-svg .label,#my-svg svg{font-family:"trebuchet ms",verdana,arial,sans-serif}#my-svg svg{font-size:13px}#my-svg p{margin:0}#my-svg .label{color:#ccc}#my-svg .cluster span,#my-svg .cluster-label span{color:#f9fffe}#my-svg .cluster-label span p{background-color:transparent}#my-svg span{fill:#ccc;color:#ccc}#my-svg .node circle,#my-svg .node path,#my-svg .node polygon,#my-svg .node rect{fill:#1f2020;stroke:#ccc;stroke-width:1px}#my-svg .flowchart-link{stroke:#c9a84c;fill:none}#my-svg .edgeLabel,#my-svg .node .label{text-align:center}#my-svg .edgeLabel,#my-svg .edgeLabel p,#my-svg .edgeLabel rect{background-color:#585858}#my-svg .edgeLabel rect{opacity:.5;fill:#585858}#my-svg .labelBkg{background-color:rgba(88,88,88,.5)}#my-svg .cluster rect{fill:#474949;stroke:rgba(255,255,255,.25);stroke-width:1px}#my-svg [data-look=neo].cluster rect,#my-svg [data-look=neo].node circle,#my-svg [data-look=neo].node polygon,#my-svg [data-look=neo].node rect{stroke:url(#my-svg-gradient);filter:drop-shadow(1px 2px 2px #b9b9b9)}#my-svg [data-look=neo].node path{stroke:url(#my-svg-gradient);stroke-width:1px}#my-svg [data-look=neo].node .outer-path{filter:drop-shadow(1px 2px 2px #b9b9b9)}#my-svg :root{--mermaid-font-family:"trebuchet ms",verdana,arial,sans-serif}#my-svg .agent span,#my-svg .agent>*{fill:#241f12!important;stroke:#c9a84c!important;color:#e8c97a!important;stroke-width:2px!important}#my-svg .tool span,#my-svg .tool>*{fill:#141d29!important;stroke:#5b9bd5!important;color:#cfe0f0!important}#my-svg .io span,#my-svg .io>*{fill:#14211a!important;stroke:#4caf7a!important;color:#bfe6d0!important}]]></style><marker id="my-svg_flowchart-v2-pointEnd" class="marker flowchart-v2" markerHeight="8" markerUnits="userSpaceOnUse" markerWidth="8" orient="auto" refX="5" refY="5" viewBox="0 0 10 10"><path d="m0 0 10 5-10 5z" class="arrowMarkerPath" style="stroke-width:1;stroke-dasharray:1,0"/></marker><marker id="my-svg_flowchart-v2-pointStart" class="marker flowchart-v2" markerHeight="8" markerUnits="userSpaceOnUse" markerWidth="8" orient="auto" refX="4.5" refY="5" viewBox="0 0 10 10"><path d="m0 5 10 5V0z" class="arrowMarkerPath" style="stroke-width:1;stroke-dasharray:1,0"/></marker><marker id="my-svg_flowchart-v2-pointEnd-margin" class="marker flowchart-v2" markerHeight="14" markerUnits="userSpaceOnUse" markerWidth="10.5" orient="auto" refX="11.5" refY="7" viewBox="0 0 11.5 14"><path d="m0 0 11.5 7L0 14z" class="arrowMarkerPath" style="stroke-width:0;stroke-dasharray:1,0"/></marker><marker id="my-svg_flowchart-v2-pointStart-margin" class="marker flowchart-v2" markerHeight="14" markerUnits="userSpaceOnUse" markerWidth="11.5" orient="auto" refX="1" refY="7" viewBox="0 0 11.5 14"><path d="m0 7 11.5 7V0z" class="arrowMarkerPath" style="stroke-width:0;stroke-dasharray:1,0"/></marker><marker id="my-svg_flowchart-v2-circleEnd" class="marker flowchart-v2" markerHeight="11" markerUnits="userSpaceOnUse" markerWidth="11" orient="auto" refX="11" refY="5" viewBox="0 0 10 10"><circle cx="5" cy="5" r="5" class="arrowMarkerPath" style="stroke-width:1;stroke-dasharray:1,0"/></marker><marker id="my-svg_flowchart-v2-circleStart" class="marker flowchart-v2" markerHeight="11" markerUnits="userSpaceOnUse" markerWidth="11" orient="auto" refX="-1" refY="5" viewBox="0 0 10 10"><circle cx="5" cy="5" r="5" class="arrowMarkerPath" style="stroke-width:1;stroke-dasharray:1,0"/></marker><marker id="my-svg_flowchart-v2-circleEnd-margin" class="marker flowchart-v2" markerHeight="14" markerUnits="userSpaceOnUse" markerWidth="14" orient="auto" refX="12.3" refY="5" viewBox="0 0 10 10"><circle cx="5" cy="5" r="5" class="arrowMarkerPath" style="stroke-width:0;stroke-dasharray:1,0"/></marker><marker id="my-svg_flowchart-v2-circleStart-margin" class="marker flowchart-v2" markerHeight="14" markerUnits="userSpaceOnUse" markerWidth="14" orient="auto" refX="-2" refY="5" viewBox="0 0 10 10"><circle cx="5" cy="5" r="5" class="arrowMarkerPath" style="stroke-width:0;stroke-dasharray:1,0"/></marker><marker id="my-svg_flowchart-v2-crossEnd" class="marker cross flowchart-v2" markerHeight="11" markerUnits="userSpaceOnUse" markerWidth="11" orient="auto" refX="12" refY="5.2" viewBox="0 0 11 11"><path d="m1 1 9 9m0-9-9 9" class="arrowMarkerPath" style="stroke-width:2;stroke-dasharray:1,0"/></marker><marker id="my-svg_flowchart-v2-crossStart" class="marker cross flowchart-v2" markerHeight="11" markerUnits="userSpaceOnUse" markerWidth="11" orient="auto" refX="-1" refY="5.2" viewBox="0 0 11 11"><path d="m1 1 9 9m0-9-9 9" class="arrowMarkerPath" style="stroke-width:2;stroke-dasharray:1,0"/></marker><marker id="my-svg_flowchart-v2-crossEnd-margin" class="marker cross flowchart-v2" markerHeight="12" markerUnits="userSpaceOnUse" markerWidth="12" orient="auto" refX="17.7" refY="7.5" viewBox="0 0 15 15"><path d="m1 1 13 13M1 14 14 1" class="arrowMarkerPath" style="stroke-width:2.5"/></marker><marker id="my-svg_flowchart-v2-crossStart-margin" class="marker cross flowchart-v2" markerHeight="12" markerUnits="userSpaceOnUse" markerWidth="12" orient="auto" refX="-3.5" refY="7.5" viewBox="0 0 15 15"><path d="m1 1 13 13M1 14 14 1" class="arrowMarkerPath" style="stroke-width:2.5;stroke-dasharray:1,0"/></marker><g class="root"><g class="edgePaths"><path id="my-svg-L_RT_C_0" marker-end="url(#my-svg_flowchart-v2-pointEnd)" d="M322.5 615v142c0 29.4 0 58.8 5.5 82 5.6 23 16.8 39.9 22.4 48.3l5.6 8.4" class="edge-thickness-thick edge-pattern-solid edge-thickness-normal edge-pattern-solid flowchart-link" data-edge="true" data-et="edge" data-id="L_RT_C_0" data-look="classic" data-points="W3sieCI6MzIyLjQ1MzEyNSwieSI6NjE1fSx7IngiOjMyMi40NTMxMjUsInkiOjY2OC43NX0seyJ4IjozMjIuNDUzMTI1LCJ5Ijo3NTd9LHsieCI6MzIyLjQ1MzEyNSwieSI6ODQ1LjI1fSx7IngiOjM1OC4xOTU3NjA5MjE1NTYxNCwieSI6ODk5fV0="/><path id="my-svg-L_C_F_0" marker-end="url(#my-svg_flowchart-v2-pointEnd)" d="M387.6 987.5v7.3c0 7.4 0 22 6.7 36.2 6.6 14.2 19.9 28 26.5 34.8l6.7 6.8" class="edge-thickness-thick edge-pattern-solid edge-thickness-normal edge-pattern-solid flowchart-link" data-edge="true" data-et="edge" data-id="L_C_F_0" data-look="classic" data-points="W3sieCI6Mzg3LjYyMTA5Mzc1LCJ5Ijo5ODcuNX0seyJ4IjozODcuNjIxMDkzNzUsInkiOjEwMzEuNX0seyJ4Ijo0MzAuMjQ5OTg4OTM0MTM1OTYsInkiOjEwNzUuNX1d"/><path id="my-svg-L_F_W_0" marker-end="url(#my-svg_flowchart-v2-pointEnd)" d="M473.1 1164v84" class="edge-thickness-thick edge-pattern-solid edge-thickness-normal edge-pattern-solid flowchart-link" data-edge="true" data-et="edge" data-id="L_F_W_0" data-look="classic" data-points="W3sieCI6NDczLjEyMTA5Mzc1LCJ5IjoxMTY0fSx7IngiOjQ3My4xMjEwOTM3NSwieSI6MTIwOH0seyJ4Ijo0NzMuMTIxMDkzNzUsInkiOjEyNTJ9XQ=="/><path id="my-svg-L_W_M_0" marker-end="url(#my-svg_flowchart-v2-pointEnd)" d="M473.1 1340.5v7.3l.1 36.1c0 14.1.2 27.6.3 34.3v6.8" class="edge-thickness-thick edge-pattern-solid edge-thickness-normal edge-pattern-solid flowchart-link" data-edge="true" data-et="edge" data-id="L_W_M_0" data-look="classic" data-points="W3sieCI6NDczLjEyMTA5Mzc1LCJ5IjoxMzQwLjV9LHsieCI6NDczLjEyMTA5Mzc1LCJ5IjoxMzg0LjV9LHsieCI6NDczLjYyMTA5Mzc1LCJ5IjoxNDI5fV0="/><path id="my-svg-L_RT_CP_0" marker-end="url(#my-svg_flowchart-v2-pointEnd)" d="m249.9 615-18.9 9c-18.8 9-56.5 26.8-71.5 44.1s-7 34-3 42.4l3.8 8.4" class="edge-thickness-normal edge-pattern-dotted edge-thickness-normal edge-pattern-solid flowchart-link" data-edge="true" data-et="edge" data-id="L_RT_CP_0" data-look="classic" data-points="W3sieCI6MjQ5Ljg1NjgyOTg1MTI3NDc3LCJ5Ijo2MTV9LHsieCI6MTM2Ljc1MzkwNjI1LCJ5Ijo2NjguNzV9LHsieCI6MTYyLjAzNzI0NzY5ODMwMDMsInkiOjcyMi41fV0="/><path id="my-svg-L_CP_RT_0" marker-end="url(#my-svg_flowchart-v2-pointEnd)" d="m198.4 722.5 5.2-9a348 348 0 0 1 29.9-44.3c14.1-17.4 32-34.4 40.9-43l9-8.4" class="edge-thickness-normal edge-pattern-dotted edge-thickness-normal edge-pattern-solid flowchart-link" data-edge="true" data-et="edge" data-id="L_CP_RT_0" data-look="classic" data-points="W3sieCI6MTk4LjM5ODc2OTQ3NTkyMDcsInkiOjcyMi41fSx7IngiOjIyOS43NjU2MjUsInkiOjY2OC43NX0seyJ4IjoyODYuMjE4MzUxNjI4ODk1MTYsInkiOjYxNX1d"/><path id="my-svg-L_UI_RT_0" marker-end="url(#my-svg_flowchart-v2-pointEnd)" d="M270.7 438.5v9c0 9 0 26.8 5 44.2 4.8 17.3 14.7 34 19.6 42.5l4.9 8.3" class="edge-thickness-normal edge-pattern-dotted edge-thickness-normal edge-pattern-solid flowchart-link" data-edge="true" data-et="edge" data-id="L_UI_RT_0" data-look="classic" data-points="W3sieCI6MjcwLjY5MTQwNjI1LCJ5Ijo0MzguNX0seyJ4IjoyNzAuNjkxNDA2MjUsInkiOjQ5Mi4yNX0seyJ4IjozMDIuMjE3NjY1NTQ1MzI1NzYsInkiOjU0Nn1d"/><path id="my-svg-L_PICK_C_0" marker-end="url(#my-svg_flowchart-v2-pointEnd)" d="M452.8 791.5v9c0 9 0 26.8-5.6 44.2a183 183 0 0 1-22.4 42.6l-5.5 8.4" class="edge-thickness-normal edge-pattern-dotted edge-thickness-normal edge-pattern-solid flowchart-link" data-edge="true" data-et="edge" data-id="L_PICK_C_0" data-look="classic" data-points="W3sieCI6NDUyLjc4OTA2MjUsInkiOjc5MS41fSx7IngiOjQ1Mi43ODkwNjI1LCJ5Ijo4NDUuMjV9LHsieCI6NDE3LjA0NjQyNjU3ODQ0Mzg2LCJ5Ijo4OTl9XQ=="/><path id="my-svg-L_F_RT_0" marker-end="url(#my-svg_flowchart-v2-pointEnd)" d="m538.5 1075.5 10.8-7.3c10.8-7.4 32.5-22 43.3-44 10.9-22.1 10.9-51.5 10.9-82.6V757c0-29.4 0-58.8-28-82.3-27.8-23.5-83.6-41-111.5-49.7l-27.9-8.8" class="edge-thickness-normal edge-pattern-dotted edge-thickness-normal edge-pattern-solid flowchart-link" data-edge="true" data-et="edge" data-id="L_F_RT_0" data-look="classic" data-points="W3sieCI6NTM4LjQ3MzY3NDMwOTQ5MDEsInkiOjEwNzUuNX0seyJ4Ijo2MDMuNDU3MDMxMjUsInkiOjEwMzEuNX0seyJ4Ijo2MDMuNDU3MDMxMjUsInkiOjk0My4yNX0seyJ4Ijo2MDMuNDU3MDMxMjUsInkiOjg0NS4yNX0seyJ4Ijo2MDMuNDU3MDMxMjUsInkiOjc1N30seyJ4Ijo2MDMuNDU3MDMxMjUsInkiOjY2OC43NX0seyJ4Ijo0MzIuMzA3MzQzMzA3MzY1NDQsInkiOjYxNX1d"/><path id="my-svg-L_RT_PICK_0" d="m373.4 615 13.2 9c13.3 9 39.7 26.8 53 44.8a71 71 0 0 1 13.2 44.7v9" class="edge-thickness-invisible edge-pattern-solid" data-edge="true" data-et="edge" data-id="L_RT_PICK_0" data-look="classic" data-points="W3sieCI6MzczLjQwNTk4NDQxOTI2MzQ2LCJ5Ijo2MTV9LHsieCI6NDUyLjc4OTA2MjUsInkiOjY2OC43NX0seyJ4Ijo0NTIuNzg5MDYyNSwieSI6NzIyLjV9XQ=="/><path id="my-svg-L_You_PLAN_0" marker-end="url(#my-svg_flowchart-v2-pointEnd)" d="M322.5 42.5v84" class="edge-thickness-normal edge-pattern-solid edge-thickness-normal edge-pattern-solid flowchart-link" data-edge="true" data-et="edge" data-id="L_You_PLAN_0" data-look="classic" data-points="W3sieCI6MzIyLjQ1MzEyNSwieSI6NDIuNX0seyJ4IjozMjIuNDUzMTI1LCJ5Ijo4Ni41fSx7IngiOjMyMi40NTMxMjUsInkiOjEzMC41fV0="/><path id="my-svg-L_PLAN_RT_0" marker-end="url(#my-svg_flowchart-v2-pointEnd)" d="m386.3 281.5 6.1 7.3c6.2 7.4 18.6 22 24.8 42.4 6.2 20.5 6.2 46.6 6.2 74.4s0 57.2-9.7 80.5c-9.8 23.2-29.3 40.2-39 48.7l-9.8 8.6" class="edge-thickness-thick edge-pattern-solid edge-thickness-normal edge-pattern-solid flowchart-link" data-edge="true" data-et="edge" data-id="L_PLAN_RT_0" data-look="classic" data-points="W3sieCI6Mzg2LjI1MjUwMDY1Mzc2NTcsInkiOjI4MS41fSx7IngiOjQyMy40MzM1OTM3NSwieSI6MzI1LjV9LHsieCI6NDIzLjQzMzU5Mzc1LCJ5Ijo0MDR9LHsieCI6NDIzLjQzMzU5Mzc1LCJ5Ijo0OTIuMjV9LHsieCI6MzYxLjkyOTkwODgxNzI4MDUsInkiOjU0Nn1d"/><path id="my-svg-L_PLAN_UI_0" d="m289.8 281.5-3.2 7.3c-3.2 7.4-9.6 22-12.7 36.7-3.2 14.7-3.2 29.3-3.2 36.7v7.3" class="edge-thickness-invisible edge-pattern-solid" data-edge="true" data-et="edge" data-id="L_PLAN_UI_0" data-look="classic" data-points="W3sieCI6Mjg5Ljc1MDExNDQwODk5NTg0LCJ5IjoyODEuNX0seyJ4IjoyNzAuNjkxNDA2MjUsInkiOjMyNS41fSx7IngiOjI3MC42OTE0MDYyNSwieSI6MzY5LjV9XQ=="/></g><g class="edgeLabels"><g class="edgeLabel"><foreignObject width="0" height="0" class="label" data-id="L_RT_C_0"><div xmlns="http://www.w3.org/1999/xhtml" class="labelBkg" style="display:table-cell;white-space:nowrap;line-height:1.5;max-width:200px;text-align:center"><span class="edgeLabel"/></div></foreignObject></g><g class="edgeLabel"><foreignObject width="0" height="0" class="label" data-id="L_C_F_0"><div xmlns="http://www.w3.org/1999/xhtml" class="labelBkg" style="display:table-cell;white-space:nowrap;line-height:1.5;max-width:200px;text-align:center"><span class="edgeLabel"/></div></foreignObject></g><g class="edgeLabel"><foreignObject width="0" height="0" class="label" data-id="L_F_W_0"><div xmlns="http://www.w3.org/1999/xhtml" class="labelBkg" style="display:table-cell;white-space:nowrap;line-height:1.5;max-width:200px;text-align:center"><span class="edgeLabel"/></div></foreignObject></g><g class="edgeLabel"><foreignObject width="0" height="0" class="label" data-id="L_W_M_0"><div xmlns="http://www.w3.org/1999/xhtml" class="labelBkg" style="display:table-cell;white-space:nowrap;line-height:1.5;max-width:200px;text-align:center"><span class="edgeLabel"/></div></foreignObject></g><g class="edgeLabel"><foreignObject width="83.7" height="19.5" class="label" data-id="L_RT_CP_0" transform="translate(124.6 644.9)"><div xmlns="http://www.w3.org/1999/xhtml" class="labelBkg" style="display:table-cell;white-space:nowrap;line-height:1.5;max-width:200px;text-align:center"><span class="edgeLabel"><p>reads the plan</p></span></div></foreignObject></g><g class="edgeLabel"><foreignObject width="42.4" height="19.5" class="label" data-id="L_CP_RT_0" transform="translate(208.6 659)"><div xmlns="http://www.w3.org/1999/xhtml" class="labelBkg" style="display:table-cell;white-space:nowrap;line-height:1.5;max-width:200px;text-align:center"><span class="edgeLabel"><p>edits ↻</p></span></div></foreignObject></g><g class="edgeLabel"><foreignObject width="28.5" height="19.5" class="label" data-id="L_UI_RT_0" transform="translate(256.5 482.5)"><div xmlns="http://www.w3.org/1999/xhtml" class="labelBkg" style="display:table-cell;white-space:nowrap;line-height:1.5;max-width:200px;text-align:center"><span class="edgeLabel"><p>edits</p></span></div></foreignObject></g><g class="edgeLabel"><foreignObject width="28.5" height="19.5" class="label" data-id="L_PICK_C_0" transform="translate(438.6 835.5)"><div xmlns="http://www.w3.org/1999/xhtml" class="labelBkg" style="display:table-cell;white-space:nowrap;line-height:1.5;max-width:200px;text-align:center"><span class="edgeLabel"><p>edits</p></span></div></foreignObject></g><g class="edgeLabel"><foreignObject width="190.4" height="19.5" class="label" data-id="L_F_RT_0" transform="translate(508.3 835.5)"><div xmlns="http://www.w3.org/1999/xhtml" class="labelBkg" style="display:table-cell;white-space:nowrap;line-height:1.5;max-width:200px;text-align:center"><span class="edgeLabel"><p>advice: cut / add → user refines</p></span></div></foreignObject></g><g class="edgeLabel"><foreignObject width="0" height="0" class="label" data-id="L_RT_PICK_0"><div xmlns="http://www.w3.org/1999/xhtml" class="labelBkg" style="display:table-cell;white-space:nowrap;line-height:1.5;max-width:200px;text-align:center"><span class="edgeLabel"/></div></foreignObject></g><g class="edgeLabel"><foreignObject width="0" height="0" class="label" data-id="L_You_PLAN_0"><div xmlns="http://www.w3.org/1999/xhtml" class="labelBkg" style="display:table-cell;white-space:nowrap;line-height:1.5;max-width:200px;text-align:center"><span class="edgeLabel"/></div></foreignObject></g><g class="edgeLabel"><foreignObject width="0" height="0" class="label" data-id="L_PLAN_RT_0"><div xmlns="http://www.w3.org/1999/xhtml" class="labelBkg" style="display:table-cell;white-space:nowrap;line-height:1.5;max-width:200px;text-align:center"><span class="edgeLabel"/></div></foreignObject></g><g class="edgeLabel"><foreignObject width="0" height="0" class="label" data-id="L_PLAN_UI_0"><div xmlns="http://www.w3.org/1999/xhtml" class="labelBkg" style="display:table-cell;white-space:nowrap;line-height:1.5;max-width:200px;text-align:center"><span class="edgeLabel"/></div></foreignObject></g></g><g class="nodes"><g class="root"><g class="clusters" transform="translate(0 122.5)"><g id="my-svg-PLAN" class="cluster" data-look="classic"><path d="M8 8h628.9v151H8z" style="fill:#1a1610!important;stroke:#c9a84c!important"/><foreignObject width="371.5" height="19.5" class="cluster-label" transform="translate(136.7 8)"><div xmlns="http://www.w3.org/1999/xhtml" style="display:table-cell;white-space:nowrap;line-height:1.5"><span class="nodeLabel" style="color:#e8c97a!important"><p>🧠 1 · Agent plans the route — the only autonomous agent loop</p></span></div></foreignObject></g></g><g class="edgePaths" transform="translate(0 122.5)"><path id="my-svg-L_P_TL_0" marker-end="url(#my-svg_flowchart-v2-pointEnd)" d="m187.7 73.7 13.8-2.1c13.8-2.2 41.4-6.6 68.4-7.3 27-.6 53.2 2.5 66.3 4l13.2 1.5" class="edge-thickness-normal edge-pattern-solid edge-thickness-normal edge-pattern-solid flowchart-link" data-edge="true" data-et="edge" data-id="L_P_TL_0" data-look="classic" data-points="W3sieCI6MTg3LjY3MTg3NSwieSI6NzMuNzQ1OTIyODEwNjIzNjh9LHsieCI6MjcwLjUxNTYyNSwieSI6NjAuNjI1fSx7IngiOjM1My4zNTkzNzUsInkiOjcwLjI3NTU0NzA0NTk1MTg3fV0="/><path id="my-svg-L_TL_P_0" marker-end="url(#my-svg_flowchart-v2-pointEnd)" d="m353.4 96.7-13.8 1.6c-13.9 1.6-41.5 4.9-68.4 4.4S217.9 98 204.8 96l-13.2-2.1" class="edge-thickness-normal edge-pattern-solid edge-thickness-normal edge-pattern-solid flowchart-link" data-edge="true" data-et="edge" data-id="L_TL_P_0" data-look="classic" data-points="W3sieCI6MzUzLjM1OTM3NSwieSI6OTYuNzI0NDUyOTU0MDQ4MTN9LHsieCI6MjcwLjUxNTYyNSwieSI6MTA2LjM3NX0seyJ4IjoxODcuNjcxODc1LCJ5Ijo5My4yNTQwNzcxODkzNzYzMn1d"/></g><g class="edgeLabels"><g class="edgeLabel"><foreignObject width="26.2" height="19.5" class="label" data-id="L_P_TL_0" transform="translate(257.2 173.4)"><div xmlns="http://www.w3.org/1999/xhtml" class="labelBkg" style="display:table-cell;white-space:nowrap;line-height:1.5;max-width:200px;text-align:center"><span class="edgeLabel"><p>calls</p></span></div></foreignObject></g><g class="edgeLabel"><foreignObject width="52.7" height="19.5" class="label" data-id="L_TL_P_0" transform="translate(244.2 219.1)"><div xmlns="http://www.w3.org/1999/xhtml" class="labelBkg" style="display:table-cell;white-space:nowrap;line-height:1.5;max-width:200px;text-align:center"><span class="edgeLabel"><p>results ↻</p></span></div></foreignObject></g></g><g class="nodes" transform="translate(0 122.5)"><g id="my-svg-flowchart-P-2" class="node default agent" data-look="classic"><path d="M-61.6-34.5H61.6v69H-61.6z" class="basic label-container" style="fill:#241f12!important;stroke:#c9a84c!important;stroke-width:2px!important" transform="translate(126 83.5)"/><g class="label" style="color:#e8c97a!important" transform="translate(94.5 64)"><rect/><foreignObject width="63.2" height="39"><div xmlns="http://www.w3.org/1999/xhtml" style="color:#e8c97a!important;display:table-cell;white-space:nowrap;line-height:1.5;max-width:200px;text-align:center"><span class="nodeLabel" style="color:#e8c97a!important"><p>brainstorm<br/>the route</p></span></div></foreignObject></g></g><g id="my-svg-flowchart-TL-3" class="node default tool" data-look="classic"><path d="M-113.5-34.5h227v69h-227z" class="basic label-container" style="fill:#141d29!important;stroke:#5b9bd5!important" transform="translate(466.9 83.5)"/><g class="label" style="color:#cfe0f0!important" transform="translate(383.4 64)"><rect/><foreignObject width="167" height="39"><div xmlns="http://www.w3.org/1999/xhtml" style="color:#cfe0f0!important;display:table-cell;white-space:nowrap;line-height:1.5;max-width:200px;text-align:center"><span class="nodeLabel" style="color:#cfe0f0!important"><p>🔧 lookup_places · ★ratings<br/>seasonal climate · holidays</p></span></div></foreignObject></g></g></g></g><g id="my-svg-flowchart-You-0" class="node default io" data-look="classic"><g class="basic label-container outer-path"><path stroke="none" stroke-width="0" d="M-90.2-17.2H92.4l1.1.3 1 .2 1.2.3 1 .4 1 .5q.3 0 1 .5l1 .5.8.7.9.7.8.7.8.8.7.8.7 1 .6.9.5 1 .5 1 .4 1 .4 1 .2 1 .2 1.1.2 1.1v3.3l-.2 1.2-.2 1-1 3.2-.5 1-.5 1-.6.9-.7.9-.7.8-.8.8-.8.7-.9.7-.9.7-1 .5-.9.5-1 .5-1 .4q-.6 0-1.1.3l-1 .2-1.2.2-1 .1H-92.5l-1.1-.3-1-.2-1.2-.3-1-.4-1-.5-1-.5-1-.5-.8-.7-.9-.7-.8-.7-.8-.8-.7-.8-.7-1-.6-.9-.5-1-.5-1-.4-1-.4-1-.2-1-.2-1.1-.2-1.1v-3.3l.2-1.2.2-1 .2-1.1.4-1q0-.3.4-1l.5-1 .5-1 .6-1 .7-.9.7-.8.8-.8.8-.7.9-.7.9-.7 1-.5.9-.5 1-.5q.4 0 1-.4.6 0 1.1-.3l1-.2 1.2-.2 1-.1h1.2" style="fill:#14211a!important;stroke:#4caf7a!important" transform="translate(322.5 25.3)"/><path fill="none" stroke-dasharray="0 0" stroke-width="1.3" d="M-90.2-17.2H90.2m-180.4 0H90.2m0 0h1.1m-1 0h1m0 0h1.1m-1 0h1m0 0 1.1.3m-1-.2 1 .2m0 0 1 .2m-1-.2 1 .2m0 0 1.2.3m-1.1-.3 1 .3m0 0 1 .4m-1-.4 1 .4m0 0 1.1.5m-1-.5 1 .5m0 0 1 .5m-1-.5 1 .5m0 0 1 .5m-1-.5 1 .5m0 0 .8.7m-.9-.7 1 .7m0 0 .8.7m-.9-.7.9.7m0 0 .8.7m-.8-.7.8.7m0 0 .8.8m-.8-.8.8.8m0 0 .7.8m-.7-.8.7.8m0 0 .7 1m-.7-1 .7 1m0 0 .6.9m-.6-1 .6 1m0 0 .5 1m-.5-1 .5 1m0 0 .5 1m-.5-1 .5 1m0 0 .4 1m-.4-1 .4 1m0 0 .4 1m-.4-1 .4 1m0 0 .2 1m-.2-1 .2 1m0 0 .2 1.1m-.2-1 .2 1m0 0 .2 1.1m-.2-1 .2 1m0 0v1.1m0-1v1m0 0V.6m0-1.2V.6m0 0v1m0-1v1m0 0-.2 1.2m.2-1.1-.2 1m0 0q0 .4-.2 1.1m.2-1-.2 1m0 0-.2 1.1m.2-1-.2 1m0 0-.4 1m.4-1-.4 1m0 0-.4 1m.4-1-.4 1m0 0-.5 1m.5-1-.5 1m0 0-.5 1m.5-1-.5 1m0 0-.6 1m.6-1-.6 1m0 0-.7.9m.7-1-.7 1m0 0-.7.8m.7-.8-.7.8m0 0-.8.8m.8-.8-.8.8m0 0-.8.7m.8-.7-.8.7m0 0-.9.7m.9-.7-.9.7m0 0-.9.7m1-.7-1 .7m0 0-1 .5m1-.5-1 .5m0 0q-.3.3-.9.5m1-.5-1 .5m0 0-1 .5m1-.5-1 .5m0 0q-.4 0-1 .4m1-.4-1 .4m0 0q-.6 0-1.1.3m1-.3-1 .3m0 0-1 .2m1-.2-1 .2m0 0-1.2.2m1.1-.2-1 .2m0 0-1.2.1m1.1 0h-1m0 0h-1.2m1.1 0h-1m0 0H-90.3m180.4 0H-90.2m0 0h-1.1m1 0h-1m0 0h-1.1m1 0h-1m0 0-1.1-.3m1 .2-1-.2m0 0-1-.2m1 .2-1-.2m0 0-1.2-.3m1.1.3-1-.3m0 0-1-.4m1 .4-1-.4m0 0-1.1-.5m1 .5-1-.5m0 0-1-.5m1 .5-1-.5m0 0-1-.5m1 .5-1-.5m0 0-.8-.7m.9.7-1-.7m0 0-.8-.7m.9.7-.9-.7m0 0-.8-.7m.8.7-.8-.7m0 0-.8-.8m.8.8-.8-.8m0 0-.7-.8m.7.8-.7-.8m0 0-.7-1m.7 1-.7-1m0 0-.6-.9m.6 1-.6-1m0 0-.5-1m.5 1-.5-1m0 0-.5-1m.5 1-.5-1m0 0-.4-1m.4 1-.4-1m0 0-.4-1m.4 1-.4-1m0 0-.2-1m.2 1-.2-1m0 0-.2-1.1m.2 1-.2-1m0 0-.2-1.1m.2 1-.2-1m0 0V.6m0 1v-1m0 0V-.6m0 1.2V-.6m0 0v-1m0 1v-1m0 0 .2-1.2m-.2 1.1q0-.4.2-1m0 0q0-.5.2-1.1m-.2 1q0-.4.2-1m0 0 .2-1.1m-.2 1 .2-1m0 0 .4-1m-.4 1 .4-1m0 0q0-.3.4-1m-.4 1 .4-1m0 0 .5-1m-.5 1 .5-1m0 0 .5-1m-.5 1 .5-1m0 0 .6-1m-.6 1 .6-1m0 0 .7-.9m-.7 1 .7-1m0 0 .7-.8m-.7.8.7-.8m0 0 .8-.8m-.8.8.8-.8m0 0 .8-.7m-.8.7.8-.7m0 0 .9-.7m-.9.7.9-.7m0 0 .9-.7m-1 .7 1-.7m0 0 1-.5m-1 .5 1-.5m0 0 .9-.5m-1 .5 1-.5m0 0 1-.5m-1 .5 1-.5m0 0 1-.4m-1 .4 1-.4m0 0 1.1-.3m-1 .3 1-.3m0 0 1-.2m-1 .2 1-.2m0 0 1.2-.2m-1.1.2 1-.2m0 0 1.2-.1m-1.1 0h1m0 0h1.2m-1.1 0h1m0 0" style="fill:#14211a!important;stroke:#4caf7a!important" transform="translate(322.5 25.3)"/></g><g class="label" style="color:#bfe6d0!important" transform="translate(226.8 15.5)"><rect/><foreignObject width="191.3" height="19.5"><div xmlns="http://www.w3.org/1999/xhtml" style="color:#bfe6d0!important;display:table-cell;white-space:nowrap;line-height:1.5;max-width:200px;text-align:center"><span class="nodeLabel" style="color:#bfe6d0!important"><p>🧳 User — region · dates · origin</p></span></div></foreignObject></g></g><g id="my-svg-flowchart-RT-7" class="node default tool" data-look="classic"><path d="M-130-34.5h260v69h-260z" class="basic label-container" style="fill:#141d29!important;stroke:#5b9bd5!important" transform="translate(322.5 580.5)"/><g class="label" style="color:#cfe0f0!important" transform="translate(222.5 561)"><rect/><foreignObject width="200" height="39"><div xmlns="http://www.w3.org/1999/xhtml" style="color:#cfe0f0!important;display:table;white-space:break-spaces;line-height:1.5;max-width:200px;text-align:center;width:200px"><span class="nodeLabel" style="color:#cfe0f0!important"><p>🗺️ 2 · Route — pick + order stops (OSRM)</p></span></div></foreignObject></g></g><g id="my-svg-flowchart-C-9" class="node default agent" data-look="classic"><path d="M-130-44.3h260v88.5h-260z" class="basic label-container" style="fill:#241f12!important;stroke:#c9a84c!important;stroke-width:2px!important" transform="translate(387.6 943.3)"/><g class="label" style="color:#e8c97a!important" transform="translate(287.6 914)"><rect/><foreignObject width="200" height="58.5"><div xmlns="http://www.w3.org/1999/xhtml" style="color:#e8c97a!important;display:table;white-space:break-spaces;line-height:1.5;max-width:200px;text-align:center;width:200px"><span class="nodeLabel" style="color:#e8c97a!important"><p>📍 3 · Things-to-do — agent curates<br/>search_attractions · Google ★</p></span></div></foreignObject></g></g><g id="my-svg-flowchart-F-11" class="node default agent" data-look="classic"><path d="M-130-44.3h260v88.5h-260z" class="basic label-container" style="fill:#241f12!important;stroke:#c9a84c!important;stroke-width:2px!important" transform="translate(473.1 1119.8)"/><g class="label" style="color:#e8c97a!important" transform="translate(373.1 1090.5)"><rect/><foreignObject width="200" height="58.5"><div xmlns="http://www.w3.org/1999/xhtml" style="color:#e8c97a!important;display:table;white-space:break-spaces;line-height:1.5;max-width:200px;text-align:center;width:200px"><span class="nodeLabel" style="color:#e8c97a!important"><p>🧮 4 · Feasibility — agent judges + suggests edits<br/>fits / tight / over (OSRM legs)</p></span></div></foreignObject></g></g><g id="my-svg-flowchart-W-13" class="node default agent" data-look="classic"><path d="M-130-44.3h260v88.5h-260z" class="basic label-container" style="fill:#241f12!important;stroke:#c9a84c!important;stroke-width:2px!important" transform="translate(473.1 1296.3)"/><g class="label" style="color:#e8c97a!important" transform="translate(373.1 1267)"><rect/><foreignObject width="200" height="58.5"><div xmlns="http://www.w3.org/1999/xhtml" style="color:#e8c97a!important;display:table;white-space:break-spaces;line-height:1.5;max-width:200px;text-align:center;width:200px"><span class="nodeLabel" style="color:#e8c97a!important"><p>📅 5 · Itinerary — agent writes and explains<br/>search_hotels · get_weather</p></span></div></foreignObject></g></g><g id="my-svg-flowchart-M-15" class="node default io" data-look="classic"><g class="basic label-container outer-path"><path stroke="none" stroke-width="0" d="M-88.8-17.2H91l1 .3 1.2.2 1 .3 1 .4 1 .5q.3 0 1 .5l1 .5.9.7.9.7.8.7.8.8.7.8.6 1 .6.9.6 1 .5 1 .4 1 .3 1 .3 1 .2 1.1q0 .4.2 1.1v3.3l-.2 1.2-.2 1-.3 1.1-.3 1-.4 1-.5 1-.6 1-.6 1-.6.9-.7.8-.8.8-.8.7-.9.7-1 .7-.9.5-1 .5-1 .5-1 .4q-.7 0-1 .3l-1.1.2-1.1.2-1.1.1H-91l-1-.3-1.2-.2-1-.3-1-.4-1-.5-1-.5-1-.5-.9-.7-.9-.7-.8-.7-.8-.8-.7-.8-.6-1q-.2-.2-.6-.9l-.6-1-.5-1-.4-1-.3-1-.3-1-.2-1.1-.2-1.1v-3.3l.2-1.2.2-1q0-.6.3-1.1l.3-1 .4-1 .5-1 .6-1 .6-1 .6-.9.7-.8.8-.8.8-.7.9-.7 1-.7.9-.5 1-.5 1-.5 1-.4 1-.3 1.1-.2 1.1-.2 1.1-.1h1.1" style="fill:#14211a!important;stroke:#4caf7a!important" transform="translate(473.1 1445.8)"/><path fill="none" stroke-dasharray="0 0" stroke-width="1.3" d="M-88.8-17.2H88.8m-177.6 0H88.8m0 0h1m-1 0h1m0 0H91m-1.1 0h1m0 0 1.2.3m-1.1-.2 1 .2m0 0 1.2.2m-1.1-.2 1 .2m0 0 1.1.3m-1-.3 1 .3m0 0 1 .4m-1-.4 1 .4m0 0 1 .5m-1-.5 1 .5m0 0q.4 0 1 .5m-1-.5 1 .5m0 0 1 .5m-1-.5 1 .5m0 0 .9.7m-1-.7 1 .7m0 0 .9.7m-.9-.7.9.7m0 0 .8.7m-.8-.7.8.7m0 0 .8.8m-.8-.8.8.8m0 0 .7.8m-.7-.8.7.8m0 0 .6 1m-.6-1 .6 1m0 0 .6.9m-.6-1 .6 1m0 0 .6 1m-.6-1 .6 1m0 0 .5 1m-.5-1 .5 1m0 0 .4 1m-.4-1 .4 1m0 0 .3 1m-.3-1 .3 1m0 0 .3 1m-.3-1 .3 1m0 0 .2 1.1m-.2-1 .2 1m0 0 .2 1.1m-.2-1 .2 1m0 0v1.1m0-1v1m0 0V.6m0-1.2V.6m0 0v1m0-1v1m0 0-.2 1.2m.2-1.1-.2 1m0 0-.2 1.1m.2-1-.2 1m0 0-.3 1.1m.3-1-.3 1m0 0-.3 1m.3-1-.3 1m0 0-.4 1m.4-1-.4 1m0 0-.5 1m.5-1-.5 1m0 0-.6 1m.6-1-.6 1m0 0-.6 1m.6-1-.6 1m0 0-.6.9m.6-1-.6 1m0 0-.7.8m.7-.8-.7.8m0 0-.8.8m.8-.8-.8.8m0 0-.8.7m.8-.7-.8.7m0 0-.9.7m.9-.7-.9.7m0 0-1 .7m1-.7-1 .7m0 0-.9.5m1-.5-1 .5m0 0-1 .5m1-.5-1 .5m0 0-1 .5m1-.5-1 .5m0 0-1 .4m1-.4-1 .4m0 0-1 .3m1-.3-1 .3m0 0-1.1.2m1-.2-1 .2m0 0-1.1.2m1-.2-1 .2m0 0-1.1.1m1 0h-1m0 0h-1.1m1 0h-1m0 0H-88.8m177.6 0H-88.8m0 0h-1m1 0h-1m0 0H-91m1.1 0h-1m0 0-1.2-.3m1.1.2-1-.2m0 0-1.2-.2m1.1.2-1-.2m0 0-1.1-.3m1 .3-1-.3m0 0-1-.4m1 .4-1-.4m0 0-1-.5m1 .5-1-.5m0 0-1-.5m1 .5-1-.5m0 0-1-.5m1 .5-1-.5m0 0-.9-.7m1 .7-1-.7m0 0-.9-.7m.9.7-.9-.7m0 0-.8-.7m.8.7-.8-.7m0 0-.8-.8m.8.8-.8-.8m0 0-.7-.8m.7.8q-.1-.3-.7-.8m0 0-.6-1m.6 1-.6-1m0 0-.6-.9m.6 1-.6-1m0 0-.6-1m.6 1-.6-1m0 0-.5-1m.5 1-.5-1m0 0-.4-1m.4 1-.4-1m0 0-.3-1m.3 1-.3-1m0 0-.3-1m.3 1-.3-1m0 0-.2-1.1m.2 1-.2-1m0 0-.2-1.1m.2 1-.2-1m0 0V.6m0 1v-1m0 0V-.6m0 1.2V-.6m0 0v-1m0 1v-1m0 0 .2-1.2m-.2 1.1.2-1m0 0 .2-1.1m-.2 1 .2-1m0 0 .3-1.1m-.3 1 .3-1m0 0 .3-1m-.3 1 .3-1m0 0 .4-1m-.4 1 .4-1m0 0 .5-1m-.5 1 .5-1m0 0 .6-1m-.6 1 .6-1m0 0 .6-1m-.6 1q0-.2.6-1m0 0 .6-.9m-.6 1 .6-1m0 0q.3-.1.7-.8m-.7.8.7-.8m0 0 .8-.8m-.8.8.8-.8m0 0 .8-.7m-.8.7.8-.7m0 0 .9-.7m-.9.7.9-.7m0 0 1-.7m-1 .7 1-.7m0 0 .9-.5m-1 .5 1-.5m0 0 1-.5m-1 .5 1-.5m0 0 1-.5m-1 .5 1-.5m0 0 1-.4m-1 .4 1-.4m0 0 1-.3m-1 .3 1-.3m0 0 1.1-.2m-1 .2 1-.2m0 0 1.1-.2m-1 .2 1-.2m0 0 1.1-.1m-1 0h1m0 0h1.1m-1 0h1m0 0" style="fill:#14211a!important;stroke:#4caf7a!important" transform="translate(473.1 1445.8)"/></g><g class="label" style="color:#bfe6d0!important" transform="translate(378.9 1436)"><rect/><foreignObject width="188.4" height="19.5"><div xmlns="http://www.w3.org/1999/xhtml" style="color:#bfe6d0!important;display:table-cell;white-space:nowrap;line-height:1.5;max-width:200px;text-align:center"><span class="nodeLabel" style="color:#bfe6d0!important"><p>🖥️ User&apos;s trip — live on the map</p></span></div></foreignObject></g></g><g id="my-svg-flowchart-CP-17" class="node default agent" data-look="classic"><path d="M-103.2-34.5h206.4v69h-206.4z" class="basic label-container" style="fill:#241f12!important;stroke:#c9a84c!important;stroke-width:2px!important" transform="translate(178.3 757)"/><g class="label" style="color:#e8c97a!important" transform="translate(105 737.5)"><rect/><foreignObject width="146.4" height="39"><div xmlns="http://www.w3.org/1999/xhtml" style="color:#e8c97a!important;display:table-cell;white-space:nowrap;line-height:1.5;max-width:200px;text-align:center"><span class="nodeLabel" style="color:#e8c97a!important"><p>💬 Copilot · LLM agent<br/>analyses · decides · edits</p></span></div></foreignObject></g></g><g id="my-svg-flowchart-UI-20" class="node default io" data-look="classic"><path d="M-111.7-34.5h223.5v69h-223.5z" class="basic label-container" style="fill:#14211a!important;stroke:#4caf7a!important" transform="translate(270.7 404)"/><g class="label" style="color:#bfe6d0!important" transform="translate(189 384.5)"><rect/><foreignObject width="163.5" height="39"><div xmlns="http://www.w3.org/1999/xhtml" style="color:#bfe6d0!important;display:table-cell;white-space:nowrap;line-height:1.5;max-width:200px;text-align:center"><span class="nodeLabel" style="color:#bfe6d0!important"><p>🖱️ User — edits on the map<br/>add · remove · reorder</p></span></div></foreignObject></g></g><g id="my-svg-flowchart-PICK-22" class="node default io" data-look="classic"><path d="M-89.3-34.5H89.4v69H-89.3z" class="basic label-container" style="fill:#14211a!important;stroke:#4caf7a!important" transform="translate(452.8 757)"/><g class="label" style="color:#bfe6d0!important" transform="translate(393.5 737.5)"><rect/><foreignObject width="118.7" height="39"><div xmlns="http://www.w3.org/1999/xhtml" style="color:#bfe6d0!important;display:table-cell;white-space:nowrap;line-height:1.5;max-width:200px;text-align:center"><span class="nodeLabel" style="color:#bfe6d0!important"><p>🖱️ User picks which<br/>attractions to visit</p></span></div></foreignObject></g></g></g></g><defs><filter id="my-svg-drop-shadow" width="130%" height="130%"><feDropShadow dx="4" dy="4" flood-color="#fff" flood-opacity=".1" stdDeviation="0"/></filter></defs><defs><filter id="my-svg-drop-shadow-small" width="150%" height="150%"><feDropShadow dx="2" dy="2" flood-color="#fff" flood-opacity=".1" stdDeviation="0"/></filter></defs><linearGradient id="my-svg-gradient" x1="0%" x2="100%" y1="0%" y2="0%" gradientUnits="objectBoundingBox"><stop offset="0%" stop-color="#ccc"/><stop offset="100%" stop-color="hsl(180, 0%, 18.3529411765%)"/></linearGradient></svg>